<?xml version="1.0" encoding="UTF-8" standalone="no"?>
<!-- Created with Inkscape (http://www.inkscape.org/) -->

<svg
   xmlns:dc="http://purl.org/dc/elements/1.1/"
   xmlns:cc="http://creativecommons.org/ns#"
   xmlns:rdf="http://www.w3.org/1999/02/22-rdf-syntax-ns#"
   xmlns:svg="http://www.w3.org/2000/svg"
   xmlns="http://www.w3.org/2000/svg"
   xmlns:sodipodi="http://sodipodi.sourceforge.net/DTD/sodipodi-0.dtd"
   xmlns:inkscape="http://www.inkscape.org/namespaces/inkscape"
   version="1.1"
   id="svg2"
   xml:space="preserve"
   width="175.90106"
   height="84.915771"
   viewBox="0 0 175.90106 84.915772"
   sodipodi:docname="bat.svg"
   inkscape:version="0.92.2 5c3e80d, 2017-08-06"><metadata
     id="metadata8"><rdf:RDF><cc:Work
         rdf:about=""><dc:format>image/svg+xml</dc:format><dc:type
           rdf:resource="http://purl.org/dc/dcmitype/StillImage" /><dc:title></dc:title></cc:Work></rdf:RDF></metadata><defs
     id="defs6"><linearGradient
       x1="475.79999"
       y1="-81.261002"
       gradientTransform="matrix(1.6004,0.7821,-0.7488,1.5323,-582.46,-1.5165)"
       x2="475.79999"
       gradientUnits="userSpaceOnUse"
       y2="-85.708"
       id="linearGradient811"><stop
         offset="0"
         style="stop-color:#fab044"
         id="stop807" /><stop
         offset="1"
         style="stop-color:#c67729"
         id="stop809" /></linearGradient><linearGradient
       x1="484.73001"
       y1="-81.260002"
       gradientTransform="matrix(1.6004,0.7821,-0.7488,1.5323,-613.46,-16.665)"
       x2="484.73001"
       gradientUnits="userSpaceOnUse"
       y2="-85.708"
       id="linearGradient819"><stop
         offset="0"
         style="stop-color:#fab044"
         id="stop815" /><stop
         offset="1"
         style="stop-color:#c67729"
         id="stop817" /></linearGradient><linearGradient
       x1="480.32999"
       y1="-82.720001"
       gradientTransform="matrix(1.6004,0.7821,-0.7488,1.5323,-598.18,-9.2001)"
       x2="480.32999"
       gradientUnits="userSpaceOnUse"
       y2="-88.003998"
       id="linearGradient827"><stop
         offset="0"
         style="stop-color:#fab044"
         id="stop823" /><stop
         offset="1"
         style="stop-color:#c67729"
         id="stop825" /></linearGradient><linearGradient
       x1="666.28003"
       y1="-178.48"
       gradientTransform="matrix(-1.6004,0.7821,0.7488,1.5323,1470.4,-1.5165)"
       x2="666.28003"
       gradientUnits="userSpaceOnUse"
       y2="-182.92999"
       id="linearGradient785"><stop
         offset="0"
         style="stop-color:#fab044"
         id="stop781" /><stop
         offset="1"
         style="stop-color:#c67729"
         id="stop783" /></linearGradient><linearGradient
       x1="675.21002"
       y1="-178.48"
       gradientTransform="matrix(-1.6004,0.7821,0.7488,1.5323,1501.4,-16.665)"
       x2="675.21002"
       gradientUnits="userSpaceOnUse"
       y2="-182.92999"
       id="linearGradient793"><stop
         offset="0"
         style="stop-color:#fab044"
         id="stop789" /><stop
         offset="1"
         style="stop-color:#c67729"
         id="stop791" /></linearGradient><linearGradient
       x1="670.81"
       y1="-179.94"
       gradientTransform="matrix(-1.6004,0.7821,0.7488,1.5323,1486.2,-9.2001)"
       x2="670.81"
       gradientUnits="userSpaceOnUse"
       y2="-185.23"
       id="linearGradient801"><stop
         offset="0"
         style="stop-color:#fab044"
         id="stop797" /><stop
         offset="1"
         style="stop-color:#c67729"
         id="stop799" /></linearGradient></defs><sodipodi:namedview
     pagecolor="#ffffff"
     bordercolor="#666666"
     borderopacity="1"
     objecttolerance="10"
     gridtolerance="10"
     guidetolerance="10"
     inkscape:pageopacity="0"
     inkscape:pageshadow="2"
     inkscape:window-width="640"
     inkscape:window-height="480"
     id="namedview4"
     showgrid="false"
     inkscape:zoom="1.8296487"
     inkscape:cx="226.54741"
     inkscape:cy="-30.249046"
     inkscape:current-layer="g10"
     fit-margin-top="1"
     fit-margin-left="1"
     fit-margin-right="1"
     fit-margin-bottom="1" /><g
     id="g10"
     inkscape:groupmode="layer"
     inkscape:label="document"
     transform="matrix(1.3333333,0,0,-1.3333333,21.648124,-21.045426)"><g
       id="g28"
       transform="matrix(0.75239534,0,0,1,49.990458,-81.555308)"
       style="fill:#383838;fill-opacity:1;stroke-width:1.152861"><path
         d="M 16.86638,26.079 C 15.676443,12.14495 10.06299,5.1022 0,5.1022 c -10.06299,0 -16.86638,5.849012 -16.86638,20.9768 0.113356,7.368495 8.1633213,20.601659 17.65967132,20.601659 C 10.289641,46.680659 17.14967,31.955323 16.86638,26.079 Z"
         style="fill:#383838;fill-opacity:1;fill-rule:nonzero;stroke:none;stroke-width:1.152861"
         id="path30"
         inkscape:connector-curvature="0"
         sodipodi:nodetypes="cscsc" /></g><g
       id="g32"
       transform="translate(41.93273,-80.36157)"
       style="fill:#383838;fill-opacity:1"><path
         d="m -3.1094727,50.968939 c 0,0 -3.47285,5.19606 -1.12849,12.40172 3.78260272,2.576675 8.3375808,-6.58019 11.6988214,-6.729407 C 10.822099,56.492035 10.900562,62.96299 19.15968,62.77379 21.50404,55.56813 18.03119,50.37207 18.03119,50.37207"
         style="fill:#383838;fill-opacity:1;fill-rule:nonzero;stroke:none"
         id="path34"
         inkscape:connector-curvature="0"
         sodipodi:nodetypes="ccscc" /></g><g
       id="g40"
       transform="matrix(0.61647924,0,0,0.82772507,48.945938,-70.703178)"
       style="fill:#383838;fill-opacity:1;stroke-width:1.39990222"><path
         d="m 19.84267,43.93764 c 0,8.61067 -8.88373,15.59082 -19.84267,15.59082 -10.95894,0 -19.84267,-6.98015 -19.84267,-15.59082 0,-8.61067 8.88373,-15.59084 19.84267,-15.59084 10.95894,0 19.84267,6.98017 19.84267,15.59084 z"
         style="fill:#383838;fill-opacity:1;fill-rule:nonzero;stroke:none;stroke-width:1.39990222"
         id="path42"
         inkscape:connector-curvature="0" /></g><g
       id="g72"
       transform="translate(49.990458,-81.555308)"><path
         d="m 5.81113,5.66927 c 0,1.56565 -0.38071,2.83485 -0.85036,2.83485 -0.46965,0 -0.85037,-1.2692 -0.85037,-2.83485 0,-1.56567 0.38072,-2.83486 0.85037,-2.83486 0.46965,0 0.85036,1.26919 0.85036,2.83486 z"
         style="fill:#ff8000;fill-opacity:1;fill-rule:nonzero;stroke:none"
         id="path74"
         inkscape:connector-curvature="0" /></g><g
       id="g76"
       transform="translate(49.990458,-81.555308)"><path
         d="M 7.17728,6.24385 C 6.64178,7.71509 5.84993,8.77753 5.40862,8.6169 4.9673,8.45627 5.04362,7.13339 5.57912,5.66217 6.11461,4.19093 6.90646,3.1285 7.34778,3.28912 7.7891,3.44975 7.71277,4.77263 7.17728,6.24385 Z"
         style="fill:#ff8000;fill-opacity:1;fill-rule:nonzero;stroke:none"
         id="path78"
         inkscape:connector-curvature="0" /></g><g
       id="g80"
       transform="translate(49.990458,-81.555308)"><path
         d="M 8.4466,7.06624 C 7.4402,8.26558 6.33273,8.9931 5.97298,8.69122 5.61322,8.38934 6.13739,7.17238 7.14378,5.97304 8.15016,4.77368 9.25764,4.04617 9.6174,4.34805 9.97716,4.64993 9.45297,5.8669 8.4466,7.06624 Z"
         style="fill:#ff8000;fill-opacity:1;fill-rule:nonzero;stroke:none"
         id="path82"
         inkscape:connector-curvature="0" /></g><g
       id="g84"
       transform="translate(49.990458,-81.555308)"><path
         d="m -4.1104,5.66927 c 0,1.56565 -0.38072,2.83485 -0.85037,2.83485 -0.46965,0 -0.85036,-1.2692 -0.85036,-2.83485 0,-1.56567 0.38071,-2.83486 0.85036,-2.83486 0.46965,0 0.85037,1.26919 0.85037,2.83486 z"
         style="fill:#ff8000;fill-opacity:1;fill-rule:nonzero;stroke:none"
         id="path86"
         inkscape:connector-curvature="0" /></g><g
       id="g88"
       transform="translate(49.990458,-81.555308)"><path
         d="m -5.57912,5.66217 c 0.5355,1.47122 0.61182,2.7941 0.1705,2.95473 C -5.84993,8.77753 -6.64178,7.71509 -7.17728,6.24385 -7.71277,4.77263 -7.7891,3.44975 -7.34778,3.28912 -6.90646,3.1285 -6.11461,4.19093 -5.57912,5.66217 Z"
         style="fill:#ff8000;fill-opacity:1;fill-rule:nonzero;stroke:none"
         id="path90"
         inkscape:connector-curvature="0" /></g><g
       id="g92"
       transform="translate(49.990458,-81.555308)"><path
         d="m -7.14378,5.97304 c 1.00639,1.19934 1.53056,2.4163 1.1708,2.71818 C -6.33273,8.9931 -7.4402,8.26558 -8.4466,7.06624 -9.45297,5.8669 -9.97716,4.64993 -9.6174,4.34805 c 0.35976,-0.30188 1.46724,0.42563 2.47362,1.62499 z"
         style="fill:#ff8000;fill-opacity:1;fill-rule:nonzero;stroke:none"
         id="path94"
         inkscape:connector-curvature="0" /></g><g
       id="g96"
       transform="matrix(1,0,0,-1,21.504,-92.986968)" /><path
       d="m 54.358378,-38.095884 c -1.08672,-1.610849 -4.388347,-2.441388 -7.374196,-1.855105 -1.59786,0.313765 -2.857045,0.993085 -3.438638,1.855105 h 0.56476 v 0 c 0.978035,-1.449706 3.949334,-2.19716 6.63649,-1.669531 1.437992,0.282387 2.571228,0.893745 3.094647,1.669531 z"
       style="fill:#000000;fill-opacity:1;fill-rule:nonzero;stroke:none;stroke-width:1"
       id="path160"
       inkscape:connector-curvature="0" /><g
       id="g196"
       transform="matrix(1,0,0,-1,48.888993,14.511542)"><path
         d="m -2.16896,45.99648 c 0.40774,2.31259 -0.51163,4.40768 -2.0535,4.67953 -1.54188,0.27187 -3.12236,-1.38243 -3.5301,-3.69502 -0.40775,-2.31258 0.51162,-4.40767 2.05349,-4.67954 1.54189,-0.27185 3.12237,1.38245 3.53011,3.69503 z"
         style="fill:#f2f2f2;fill-opacity:1;fill-rule:nonzero;stroke:none"
         id="path198"
         inkscape:connector-curvature="0" /></g><g
       id="g200"
       transform="matrix(1,0,0,-1,48.888993,13.761542)"><path
         d="m -3.09966,46.01059 c 0.05848,1.11621 -0.3466,2.04477 -0.90483,2.07402 -0.55821,0.02925 -1.05816,-0.85188 -1.11663,-1.96809 -0.05849,-1.11622 0.3466,-2.04477 0.90481,-2.07402 0.55821,-0.02926 1.05817,0.85188 1.11665,1.96809 z"
         style="fill:#000000;fill-opacity:1;fill-rule:nonzero;stroke:none"
         id="path202"
         inkscape:connector-curvature="0" /></g><g
       id="g204"
       transform="matrix(1,0,0,-1,48.888993,14.511542)"><path
         d="M 7.75256,46.98099 C 7.34482,49.29358 5.76434,50.94788 4.22246,50.67601 2.68059,50.40416 1.76122,48.30907 2.16896,45.99648 2.5767,43.6839 4.15718,42.0296 5.69907,42.30145 c 1.54187,0.27187 2.46124,2.36696 2.05349,4.67954 z"
         style="fill:#f2f2f2;fill-opacity:1;fill-rule:nonzero;stroke:none"
         id="path206"
         inkscape:connector-curvature="0" /></g><g
       id="g208"
       transform="matrix(1,0,0,-1,48.888993,13.761542)"><path
         d="M 5.12112,46.11652 C 5.06265,47.23273 4.5627,48.11386 4.00449,48.08461 3.44626,48.05536 3.04118,47.1268 3.09966,46.01059 3.15814,44.89438 3.6581,44.01324 4.21631,44.0425 c 0.55821,0.02925 0.9633,0.9578 0.90481,2.07402 z"
         style="fill:#000000;fill-opacity:1;fill-rule:nonzero;stroke:none"
         id="path210"
         inkscape:connector-curvature="0" /></g><path
       style="fill:#383838;fill-opacity:1;fill-rule:evenodd;stroke:none;stroke-width:0.75px;stroke-linecap:butt;stroke-linejoin:miter;stroke-opacity:1"
       d="m -14.895138,-60.971257 c -4.81247,14.545914 20.8746999,25.379423 36.89437,27.413446 20.700248,-14.863388 34.692998,-14.453207 55.566398,0.108465 16.97455,-1.834973 41.52816,-12.850002 36.77442,-27.372998 -7.2347,6.268637 -13.93647,6.118283 -20.6585,-0.148913 -6.01204,4.947548 -12.81549,5.176064 -19.03032,0 -6.13705,2.87137 -14.62956,-0.244286 -16.16697,-3.45102 -5.86258,-0.618746 -11.82283,-0.618746 -17.68541,0 -2.523048,3.699553 -10.851278,6.158117 -16.166968,3.45102 -5.65156,5.758291 -14.16584,5.585284 -19.0310801,0 -4.03934,5.749557 -16.2144499,6.162819 -20.4959399,0 z"
       id="path1126"
       inkscape:connector-curvature="0"
       sodipodi:nodetypes="ccccccccccc" /><path
       style="fill:#ffffff;fill-rule:evenodd;stroke:none;stroke-width:0.75px;stroke-linecap:butt;stroke-linejoin:miter;stroke-opacity:1"
       d="m 45.988239,-39.571731 0.538517,-1.615549 0.807774,1.211662 z"
       id="path2114"
       inkscape:connector-curvature="0" /><path
       inkscape:connector-curvature="0"
       id="path2116"
       d="m 51.83453,-39.571731 -0.538517,-1.615549 -0.807774,1.211662 z"
       style="fill:#ffffff;fill-rule:evenodd;stroke:none;stroke-width:0.75px;stroke-linecap:butt;stroke-linejoin:miter;stroke-opacity:1" /></g></svg>