<?xml version="1.0" standalone="no"?>
<!DOCTYPE svg PUBLIC "-//W3C//DTD SVG 20010904//EN"
 "http://www.w3.org/TR/2001/REC-SVG-20010904/DTD/svg10.dtd">
<svg version="1.0" xmlns="http://www.w3.org/2000/svg"
 width="1280.000000pt" height="640.000000pt" viewBox="0 0 1280.000000 640.000000"
 preserveAspectRatio="xMidYMid meet">
<g transform="translate(0.000000,640.000000) scale(0.100000,-0.100000)"
fill="#000000" stroke="none">
<path d="M12280 4413 c-11 -14 -22 -40 -26 -59 -3 -18 -13 -39 -20 -45 -8 -7
-60 -24 -116 -40 -95 -25 -104 -26 -132 -12 -35 18 -99 12 -126 -12 -17 -15
-140 -16 -1687 -10 -1612 7 -1669 8 -1706 26 -49 25 -94 24 -136 -2 l-34 -21
-1113 4 c-1049 3 -1113 4 -1132 21 -18 16 -60 17 -715 15 l-695 -3 -40 -32
c-23 -18 -44 -33 -47 -33 -3 0 -38 22 -78 48 -40 27 -83 55 -96 62 l-25 13 23
-29 c59 -77 81 -108 81 -113 0 -4 -31 -32 -69 -63 -38 -31 -86 -82 -108 -112
-47 -69 -69 -80 -440 -222 -483 -184 -768 -274 -869 -274 -74 0 -166 32 -259
90 -204 125 -176 115 -310 118 -121 4 -252 -8 -1055 -93 -477 -50 -841 -92
-1095 -125 -175 -23 -222 -32 -232 -46 -27 -37 -26 -85 5 -228 44 -197 76
-410 157 -1031 28 -216 36 -235 92 -235 31 0 394 119 793 261 168 59 593 210
945 334 649 229 1252 450 1580 577 387 150 627 238 649 238 31 0 72 33 80 65
4 16 19 30 42 40 46 19 41 20 59 -15 25 -49 47 -37 -305 -171 -372 -143 -395
-160 -395 -299 0 -68 3 -81 29 -118 32 -47 95 -82 147 -82 49 0 113 19 299 90
222 84 334 133 382 167 41 28 42 28 242 34 219 7 254 14 330 69 90 66 125 136
149 293 10 71 15 82 47 111 33 30 44 33 121 39 564 41 714 47 1354 58 380 7
902 13 1161 15 319 1 478 6 492 13 11 6 65 16 118 21 106 11 157 32 162 67 7
50 -70 48 1570 48 1219 0 1536 -3 1539 -12 6 -18 121 -16 153 2 20 12 90 14
371 15 395 0 359 -10 359 99 0 52 5 74 19 93 15 18 21 46 24 111 l5 87 -67 0
c-36 0 -71 4 -78 8 -6 4 -19 50 -28 102 -9 52 -17 95 -18 96 -1 1 -71 4 -154
7 l-153 5 -20 -25z m-7178 -809 c79 -8 80 -9 80 -122 1 -99 -19 -149 -83 -206
-65 -58 -120 -76 -234 -76 -78 0 -99 4 -143 26 -29 14 -63 40 -77 58 -30 39
-109 241 -102 260 6 14 145 56 186 56 19 0 22 -4 18 -22 -23 -90 -14 -181 19
-209 11 -9 11 -5 4 23 -24 82 -3 165 52 198 27 16 50 20 123 20 50 0 120 -3
157 -6z m-605 -255 c52 -25 101 -82 109 -126 16 -84 -26 -151 -121 -193 -133
-61 -502 -192 -551 -197 -103 -11 -184 70 -184 183 0 66 26 107 91 139 108 55
548 214 593 215 11 0 39 -9 63 -21z"/>
</g>
</svg>
