<?xml version="1.0" encoding="UTF-8" standalone="no"?>
<svg
   xmlns:dc="http://purl.org/dc/elements/1.1/"
   xmlns:cc="http://creativecommons.org/ns#"
   xmlns:rdf="http://www.w3.org/1999/02/22-rdf-syntax-ns#"
   xmlns:svg="http://www.w3.org/2000/svg"
   xmlns="http://www.w3.org/2000/svg"
   xmlns:sodipodi="http://sodipodi.sourceforge.net/DTD/sodipodi-0.dtd"
   xmlns:inkscape="http://www.inkscape.org/namespaces/inkscape"
   version="1.1"
   id="svg10"
   xml:space="preserve"
   width="483.78"
   height="362.83466"
   viewBox="0 0 483.78 362.83466"
   sodipodi:docname="montain.svg"
   inkscape:version="1.0beta1 (32d4812, 2019-09-19)">
  <metadata
   id="metadata16">
    <rdf:RDF>
      <cc:Work
   rdf:about="">
        <dc:format>image/svg+xml</dc:format>

        <dc:type
   rdf:resource="http://purl.org/dc/dcmitype/StillImage" />

        <dc:title />

      </cc:Work>

    </rdf:RDF>

  </metadata>

  <defs
   id="defs14" />

  <sodipodi:namedview
   pagecolor="#ffffff"
   bordercolor="#666666"
   inkscape:document-rotation="0"
   borderopacity="1"
   objecttolerance="10"
   gridtolerance="10"
   guidetolerance="10"
   inkscape:pageopacity="0"
   inkscape:pageshadow="2"
   inkscape:window-width="1600"
   inkscape:window-height="880"
   id="namedview12"
   showgrid="false"
   inkscape:zoom="1.5387515"
   inkscape:cx="185.44927"
   inkscape:cy="182.14266"
   inkscape:window-x="0"
   inkscape:window-y="22"
   inkscape:window-maximized="0"
   inkscape:current-layer="svg10" />

  <g
   id="g18"
   inkscape:groupmode="layer"
   inkscape:label="montain"
   transform="matrix(1.3333333,0,0,-1.3333333,0,362.83467)" />

<path
   sodipodi:nodetypes="caaaasaaaaaaaaaaccc"
   inkscape:connector-curvature="0"
   id="path81"
   d="m -14.406432,192.44085 c 0,0 33.644144,13.2086 51.352408,13.68165 14.524665,0.388 28.623208,-3.15527 42.659305,-8.95721 19.560615,-8.08555 38.154499,-46.73365 57.425989,-35.82883 2.99489,1.69467 3.60905,12.32292 6.56297,14.33153 13.00749,8.8449 26.44633,-19.54572 40.19819,-16.12298 0,0 23.01601,48.97716 45.94079,51.95182 7.35118,0.95387 11.22097,-13.773 18.49545,-12.34767 12.66245,2.48102 9.30892,28.4638 21.70274,32.05353 7.16548,2.0754 13.58863,-10.79824 20.50928,-8.95721 10.20018,2.71345 17.78853,24.58072 27.89261,28.66307 7.28003,2.94133 14.8559,-6.35222 22.15003,-3.58289 5.30688,2.01483 9.42763,12.77422 14.76669,14.33154 10.69531,3.11965 21.35452,-14.66827 31.99446,-10.74865 5.18677,1.91073 8.74813,14.36648 13.94633,16.12298 3.02139,1.02094 5.7991,-3.85513 9.02407,-3.58289 73.47151,6.20213 188.99428,114.93442 188.99428,114.93442 L -10.166178,366.50998 Z"
   style="fill:#000000;stroke:#000000;stroke-width:0.42430200000000001px;stroke-linecap:butt;stroke-linejoin:miter;stroke-opacity:1" />
</svg>
